/* XPM */
static char * xpm_alien1a[] = {
"34 22 14 1",
" 	c None",
".	c #000000",
"+	c #545454",
"@	c #7C7C7C",
"#	c #A8A8A8",
"$	c #ECECEC",
"%	c #707070",
"&	c #B4B4B4",
"*	c #D0D0D0",
"=	c #444444",
"-	c #E40000",
";	c #0000EC",
">	c #000040",
",	c #ECA85C",
"                                  ",
"           ++@@##@@++             ",
"           ++@@##@@++             ",
" $$  $$  ++@@##$$##@@++           ",
" $$  $$  ++@@##$$##@@++           ",
" @@$$    %%@@&&**&&@@%%           ",
" @@$$    %%@@&&**&&@@%%           ",
"   $$    @@==@@$$@@==@@==$$       ",
"   $$    @@==@@$$@@==@@==$$       ",
"     $$==&&--;;##--;;&&    $$     ",
"     $$==&&--;;##--;;&&    $$     ",
"         @@##$$@@$$##@@    @@     ",
"         @@##$$@@$$##@@    @@     ",
"         %%$$>>,,>>$$%%    $$$$   ",
"         %%$$>>,,>>$$%%    $$$$   ",
"       $$++@@>>>>>>@@++$$         ",
"       $$++@@>>>>>>@@++$$         ",
"       $$  ++@@$$@@++    $$       ",
"       $$  ++@@$$@@++    $$       ",
"   @@$$@@                @@$$@@   ",
"   @@$$@@                @@$$@@   ",
"                                  "};
